<svg width="51" height="53" viewBox="0 0 51 53" fill="none" xmlns="http://www.w3.org/2000/svg">
<path d="M25.7552 11.3304L27.3007 12.6485M30.9373 15.75L34.6851 18.9463M38.6651 22.3407L39.9925 23.4727M48.6477 21.1871L24.2507 49.7934C23.9508 50.1451 23.5021 50.3451 23.0035 50.3495C22.505 50.3539 21.9973 50.1622 21.5922 49.8168L15.5464 44.6606C16.2213 43.8693 16.5065 42.8015 16.3392 41.6923C16.172 40.5831 15.566 39.5232 14.6546 38.7459C14.2034 38.3593 13.6903 38.0537 13.1448 37.8467C12.5993 37.6397 12.0322 37.5355 11.4758 37.5397C10.9193 37.5439 10.3845 37.6565 9.90205 37.8713C9.4196 38.086 8.99884 38.3985 8.6641 38.791L2.58191 33.6038C2.17683 33.2583 1.90745 32.7872 1.83311 32.2942C1.75877 31.8012 1.88562 31.3268 2.18558 30.9751L26.5825 2.36878C26.8825 2.01707 27.331 1.81687 27.8295 1.81247C28.3281 1.80806 28.8358 1.99971 29.2409 2.34518L35.2866 7.50134C34.9519 7.89384 34.7097 8.35869 34.5738 8.86899C34.4379 9.37929 34.4111 9.92518 34.4948 10.4753C34.5785 11.0255 34.7711 11.5691 35.0616 12.0751C35.3521 12.5811 35.7347 13.0393 36.1876 13.4238C37.0991 14.2012 38.2413 14.6323 39.363 14.6224C40.4847 14.6125 41.4941 14.1623 42.169 13.371L48.215 18.5273C48.4222 18.6967 48.5979 18.9006 48.7322 19.127C48.8665 19.3534 48.9567 19.5978 48.997 19.8456C49.0373 20.0934 49.0272 20.3398 48.9672 20.5702C48.9072 20.8005 48.7986 21.0103 48.6477 21.1871Z" stroke="#F1FFF3" stroke-width="3.625" stroke-linecap="round" stroke-linejoin="round"/>
</svg>
