<svg width="39" height="50" viewBox="0 0 39 50" fill="none" xmlns="http://www.w3.org/2000/svg">
<path d="M7.72273 21.222L24.9493 27.952M27.5169 23.914C30.0751 24.3722 32.4079 25.6694 34.1468 27.6009C35.8858 29.5324 36.9318 31.9881 37.1198 34.5802C37.2979 37.2079 36.5857 39.8189 35.0979 41.9921C33.6101 44.1653 31.4335 45.7739 28.9194 46.5585C27.2982 47.0639 25.5857 47.2073 23.9029 46.9787C22.2202 46.75 20.6082 46.1549 19.1806 45.2352M35.4571 30.0106L20.0403 40.4959M25.0758 2.33488C29.8315 4.19574 32.1773 9.56196 30.3153 14.3206L19.558 41.8124C17.696 46.571 12.3312 48.92 7.57553 47.0592C2.81984 45.1983 0.473982 39.8321 2.33598 35.0735L13.0933 7.58173C14.9553 2.82313 20.3201 0.474011 25.0758 2.33488Z" stroke="#F1FFF3" stroke-width="3.39328" stroke-linecap="round" stroke-linejoin="round"/>
</svg>
