<svg width="36" height="57" viewBox="0 0 36 57" fill="none" xmlns="http://www.w3.org/2000/svg">
<path d="M2.48909 23.1844C2.31287 22.2372 2.1585 21.257 2.03734 20.2547C0.836791 10.4631 2.97363 2.14727 6.80658 1.67366C10.6395 1.20005 14.7368 8.76683 15.9374 18.5585C16.0696 19.6599 16.1687 20.8164 16.2238 21.8627M3.14992 7.03758L7.9411 8.84391M1.70706 13.4038L7.59966 15.9591M6.78461 48.5832H29.2205M18.2613 23.5809C17.4751 22.8323 16.8491 21.9319 16.4212 20.9341C15.9934 19.9363 15.7725 18.8621 15.7721 17.7765C15.7721 15.6547 16.6144 13.6196 18.1137 12.1183C19.613 10.617 21.6467 9.77203 23.7684 9.76911C25.8921 9.76911 27.9288 10.6127 29.4304 12.1144C30.9321 13.6161 31.7758 15.6528 31.7758 17.7765C31.7774 18.6724 31.6286 19.5622 31.3353 20.4088M23.7683 12.4235C23.7683 12.4235 23.526 7.40102 27.3149 4.97789M2.19178 23.5809L4.39463 20.6622C4.55403 20.4543 4.75908 20.2858 4.99401 20.1699C5.22893 20.0541 5.4874 19.9938 5.74935 19.9938C6.01131 19.9938 6.26977 20.0541 6.5047 20.1699C6.73962 20.2858 6.94467 20.4543 7.10408 20.6622L9.14154 23.3276C9.22058 23.4325 9.32301 23.5176 9.44056 23.5763C9.55811 23.6349 9.68755 23.6653 9.81891 23.6653C9.95026 23.6653 10.08 23.6349 10.1975 23.5763C10.3151 23.5176 10.4172 23.4325 10.4963 23.3276L12.534 20.6622C12.6934 20.4543 12.8985 20.2858 13.1334 20.1699C13.3683 20.0541 13.6268 19.9938 13.8887 19.9938C14.1507 19.9938 14.4092 20.0541 14.6441 20.1699C14.879 20.2858 15.0841 20.4543 15.2435 20.6622C15.2435 20.6622 16.3449 22.127 17.182 23.2395C17.2724 23.3582 17.3892 23.4544 17.5229 23.5207C17.6567 23.5869 17.8037 23.6214 17.9529 23.6214C18.1021 23.6214 18.2494 23.5869 18.3831 23.5207C18.5169 23.4544 18.6337 23.3582 18.7241 23.2395L20.7065 20.6842C20.8647 20.4764 21.0688 20.308 21.3029 20.1921C21.5369 20.0762 21.7946 20.0159 22.0558 20.0159C22.317 20.0159 22.5747 20.0762 22.8087 20.1921C23.0428 20.308 23.2469 20.4764 23.4052 20.6842L25.4426 23.3496C25.5228 23.4547 25.6262 23.5398 25.7446 23.5984C25.863 23.657 25.9935 23.6874 26.1256 23.6874C26.2578 23.6874 26.388 23.657 26.5064 23.5984C26.6248 23.5398 26.7282 23.4547 26.8084 23.3496L28.8461 20.6842C29.0044 20.4764 29.2085 20.308 29.4425 20.1921C29.6766 20.0762 29.934 20.0159 30.1952 20.0159C30.4563 20.0159 30.7141 20.0762 30.9481 20.1921C31.1821 20.308 31.3863 20.4764 31.5445 20.6842L33.7474 23.6029C34.0583 24.0201 34.228 24.5255 34.2319 25.0458V52.2178C34.2319 52.5838 34.1598 52.9461 34.0198 53.2842C33.8797 53.6223 33.6746 53.9295 33.4158 54.1883C33.1571 54.447 32.8499 54.6523 32.5118 54.7923C32.1737 54.9323 31.8112 55.0045 31.4453 55.0045H4.4277C3.69056 55.0015 2.98439 54.7066 2.46418 54.1844C1.94397 53.6621 1.65209 52.955 1.6521 52.2178V25.0238C1.66616 24.4961 1.8561 23.9883 2.19178 23.5809Z" stroke="#F1FFF3" stroke-width="3.30426" stroke-linecap="round" stroke-linejoin="round"/>
</svg>
