<svg width="51" height="53" viewBox="0 0 51 53" fill="none" xmlns="http://www.w3.org/2000/svg">
<path d="M44.4136 28.965V47.8668C44.4136 48.7369 44.068 49.5715 43.4527 50.1868C42.8374 50.8021 42.0028 51.1478 41.1327 51.1478H9.26393C8.39376 51.1478 7.55922 50.8021 6.94392 50.1868C6.32862 49.5715 5.98299 48.7369 5.98299 47.8668V28.965M25.1983 16.975C25.1983 16.975 37.1523 16.2874 40.1196 13.9715C41.5361 12.8623 42.4565 11.238 42.6802 9.45285C42.9039 7.66771 42.4128 5.86654 41.3138 4.44214C40.2039 3.01948 38.5758 2.09402 36.7857 1.86799C34.9955 1.64196 33.1888 2.13375 31.7602 3.23591C28.8169 5.55188 25.1983 16.975 25.1983 16.975ZM25.1983 16.975C25.1983 16.975 13.2443 16.2874 10.2769 13.9714C8.85952 12.8624 7.93935 11.2369 7.71779 9.45091C7.49623 7.6649 7.99137 5.86385 9.09484 4.44212C10.2027 3.01674 11.831 2.08919 13.6221 1.86304C15.4132 1.63689 17.221 2.13062 18.6484 3.23588C21.5796 5.55186 25.1983 16.975 25.1983 16.975ZM25.1983 16.975V51.1477M4.84905 16.975H45.5596C47.2384 16.975 48.5993 18.3359 48.5993 20.0147V24.526C48.5993 26.2048 47.2384 27.5658 45.5596 27.5658H4.84905C3.17026 27.5658 1.80933 26.2048 1.80933 24.526V20.0147C1.80933 18.3359 3.17026 16.975 4.84905 16.975Z" stroke="#F1FFF3" stroke-width="3.61872" stroke-linecap="round" stroke-linejoin="round"/>
</svg>
